# xmcd
#
# Track frame offsets:
#	150
#	19611
#	38455
#	56925
#	78582
#	93809
#	113792
#	131992
#	148181
#	166516
#	183730
#	201747
#	222544
#	246031
#	268509
#	287945
#	304869
#
# Disc length: 4349 seconds
#
# Revision: 0
# Processed by: cddbd v1.5PL3 Copyright (c) Steve Scherf et al.
# Submitted via: dBpowerAMP V4.0
#
DISCID=0310fb11
DTITLE=Various Artist - OST
DYEAR=1900
DGENRE=Blues
TTITLE0=Reason 가을동화
TTITLE1=너만을 위한 사랑 - 비밀
TTITLE2=차라리 - 줄리엣의 남자
TTITLE3=Must Say Goodbye - 시월에
TTITLE4=슬픈향기 - 동감
TTITLE5=Belle - 미인
TTITLE6=영원보다 긴 사랑 - 꼭지
TTITLE7=전설속의 사랑 - 신귀공자
TTITLE8=기억속으로 - 사랑하세요
TTITLE9=소미 - 사랑은 아무나 하나
TTITLE10=오늘이 마지막이기를 - 아나키스트
TTITLE11=사랑인거죠 - 싸이렌
TTITLE12=부치지 않은 편지 - 공동경비구역
TTITLE13=후회 - 카라
TTITLE14=내안의 너의 미소 - RNA
TTITLE15=어떤욕심 - 쥴리엣의 남자
TTITLE16=기도 - 가을 동화
EXTD=
EXTT0=
EXTT1=
EXTT2=
EXTT3=
EXTT4=
EXTT5=
EXTT6=
EXTT7=
EXTT8=
EXTT9=
EXTT10=
EXTT11=
EXTT12=
EXTT13=
EXTT14=
EXTT15=
EXTT16=
PLAYORDER=
